# xmcd
#
# Track frame offsets:
#	150
#	15394
#	29185
#	44236
#	57842
#	74464
#	84742
#	94595
#	102208
#	110893
#	127241
#	140411
#	153399
#	168493
#	188025
#	200533
#	214621
#	232996
#	248162
#	263101
#	277761
#	293132
#	309670
#	331341
#
# Disc length: 4575 seconds
#
# Revision: 0
# Processed by: cddbd v1.5.2PL0 Copyright (c) Steve Scherf et al.
# Submitted via: EasyCDDAExtractor 16.0.6.1
#
DISCID=6811dd18
DTITLE=Συλλογικός δίσκος - Λαϊκοί συνθέτες Α5-Παπαϊωάννου Γιάννης
DYEAR=2010
DGENRE=Λαϊκή
TTITLE0=Καζαντζίδης Στέλιος - Πριν το χάραμα [στ. Χ. Βασιλειάδης]
TTITLE1=Μπέλλου Σωτηρία - Ο Ζέππος
TTITLE2=Γλυκερία - Καραμπιμπερίμ
TTITLE3=Αγγελόπουλος Μανώλης - Πέντε Έλληνες στον Άδη [στ. Κ. Μανεσης]
TTITLE4=Γκολές Μπάμπης - Βαδίζω και παραμιλώ
TTITLE5=Αλεξάνδρα - Σβήσε το φως να κοιμηθούμε [στ. Χ. Βασιλειάδης]
TTITLE6=Αλεξάνδρα - Η μοδιστρούλα [στ. Κ. Μάνεσης]
TTITLE7=Αλεξάνδρα - Απ' της Ζέας το λιμάνι [στ. Χ. Βασιλειάδης]
TTITLE8=Αλεξάνδρα - Η Βαγγελίτσα
TTITLE9=Κύπριος Στράτος - Εχθές αργά το δειλινό [στ. Κ. Μάνεσης]
TTITLE10=Σακελλαρίου Ρίτα - Θλιμμένο σούρουπο [στ. Ν. Λουκόπουλος]
TTITLE11=Γκρέϋ Καίτη - Έμπα στ' αμάξι [στ. Ν. Μπατάγιας]
TTITLE12=Διονυσίου Στράτος - Σουδανέζα
TTITLE13=Τσαουσάκης Πρόδρομος - Άσε με, άσε με [στ. Κ. Μάνεσης]
TTITLE14=Αλεξάνδρα - Πώς θα περάσει η βραδιά [στ. Α. Αγγελόπουλος]
TTITLE15=Τερζής Πασχάλης - Απ' τις παρανομίες μου
TTITLE16=Αρβανιτάκη Ελευθερία-Οπισθοδρομική κομπανία - Ράμπι ράμπι
TTITLE17=Μπέλλου Σωτηρία - Τον λόγο σου δεν κράτησες [στ. Α. Αγγελόπουλος κ Γ.
TTITLE17=Παπαϊωάννου]
TTITLE18=Σακελλαρίου Ρίτα - Τρεις γεροντόμαγκες [στ. Ε. Μουστακίδης]
TTITLE19=Νταράλας Λουκάς - Ο Περικλής [στ. Κ. Μάνεσης]
TTITLE20=Μαριώ - Πειραιώτισσα [στ. Κ. Μάνεσης]
TTITLE21=Dilek Koc - Τι τα θέλεις τα λεφτά (Indim havuz basina)[στ. Β. Παπαδόπ
TTITLE21=ουλος]
TTITLE22=Καπαρού Αργυρώ - Άνοιξε, άνοιξε [στ. Χ. Βασιλειάδης]
TTITLE23=Παπαϊωάννου Γιάννης - Ο Γ. Παπαϊωάννου αφηγείται-Φαληριώτισσα
EXTD=
EXTT0=
EXTT1=
EXTT2=
EXTT3=
EXTT4=
EXTT5=
EXTT6=
EXTT7=
EXTT8=
EXTT9=
EXTT10=
EXTT11=
EXTT12=
EXTT13=
EXTT14=
EXTT15=
EXTT16=
EXTT17=
EXTT18=
EXTT19=
EXTT20=
EXTT21=
EXTT22=
EXTT23=
PLAYORDER=
